<mxfile host="app.diagrams.net" modified="2022-12-12T14:17:23.989Z" agent="5.0 (Macintosh; Intel Mac OS X 10_15_7) AppleWebKit/537.36 (KHTML, like Gecko) Chrome/107.0.0.0 Safari/537.36" version="20.6.0" etag="ZAzarnVfGonHQF9RwUk9" type="github">
  <diagram id="U9PDa7CynsyJNOF8UVTV" name="第 1 页">
    <mxGraphModel dx="946" dy="621" grid="1" gridSize="10" guides="1" tooltips="1" connect="1" arrows="1" fold="1" page="1" pageScale="1" pageWidth="827" pageHeight="1169" math="0" shadow="0">
      <root>
        <mxCell id="0" />
        <mxCell id="1" parent="0" />
        <mxCell id="u2pC5DHE-9uG1haP-ySe-31" value="" style="rounded=0;whiteSpace=wrap;html=1;fontSize=14;fillColor=#f5f5f5;fontColor=#333333;strokeColor=#666666;" vertex="1" parent="1">
          <mxGeometry x="150" y="400" width="489" height="210" as="geometry" />
        </mxCell>
        <mxCell id="u2pC5DHE-9uG1haP-ySe-1" value="" style="rounded=0;whiteSpace=wrap;html=1;fillColor=#f5f5f5;fontColor=#333333;strokeColor=#666666;" vertex="1" parent="1">
          <mxGeometry x="150" y="80" width="630" height="300" as="geometry" />
        </mxCell>
        <mxCell id="u2pC5DHE-9uG1haP-ySe-2" value="hello" style="rounded=0;whiteSpace=wrap;html=1;fillColor=#dae8fc;strokeColor=#6c8ebf;" vertex="1" parent="1">
          <mxGeometry x="160" y="160" width="110" height="40" as="geometry" />
        </mxCell>
        <mxCell id="u2pC5DHE-9uG1haP-ySe-3" value="lucene" style="rounded=0;whiteSpace=wrap;html=1;fillColor=#dae8fc;strokeColor=#6c8ebf;" vertex="1" parent="1">
          <mxGeometry x="160" y="220" width="110" height="40" as="geometry" />
        </mxCell>
        <mxCell id="u2pC5DHE-9uG1haP-ySe-4" value="solr" style="rounded=0;whiteSpace=wrap;html=1;fillColor=#dae8fc;strokeColor=#6c8ebf;" vertex="1" parent="1">
          <mxGeometry x="160" y="280" width="110" height="40" as="geometry" />
        </mxCell>
        <mxCell id="u2pC5DHE-9uG1haP-ySe-5" value="" style="rounded=0;whiteSpace=wrap;html=1;" vertex="1" parent="1">
          <mxGeometry x="330" y="150" width="430" height="180" as="geometry" />
        </mxCell>
        <mxCell id="u2pC5DHE-9uG1haP-ySe-6" value="&lt;b&gt;&lt;font style=&quot;font-size: 14px;&quot;&gt;词典索引FST，文件tip&lt;br&gt;&lt;/font&gt;&lt;/b&gt;" style="text;html=1;strokeColor=none;fillColor=none;align=center;verticalAlign=middle;whiteSpace=wrap;rounded=0;" vertex="1" parent="1">
          <mxGeometry x="166" y="340" width="95" height="30" as="geometry" />
        </mxCell>
        <mxCell id="u2pC5DHE-9uG1haP-ySe-8" value="&lt;b style=&quot;font-size: 13px;&quot;&gt;文档的词典和词典索引结构&lt;br&gt;id：1，content：hello lucene&lt;br&gt;id：2，content：hello solr&lt;/b&gt;" style="text;html=1;strokeColor=none;fillColor=none;align=left;verticalAlign=middle;whiteSpace=wrap;rounded=0;" vertex="1" parent="1">
          <mxGeometry x="150" y="80" width="330" height="60" as="geometry" />
        </mxCell>
        <mxCell id="u2pC5DHE-9uG1haP-ySe-11" style="edgeStyle=orthogonalEdgeStyle;rounded=0;orthogonalLoop=1;jettySize=auto;html=1;entryX=0;entryY=0.5;entryDx=0;entryDy=0;fontSize=14;strokeWidth=2;" edge="1" parent="1" source="u2pC5DHE-9uG1haP-ySe-9" target="u2pC5DHE-9uG1haP-ySe-10">
          <mxGeometry relative="1" as="geometry" />
        </mxCell>
        <mxCell id="u2pC5DHE-9uG1haP-ySe-9" value="docId：1，词频：1，offset：0～4" style="rounded=0;whiteSpace=wrap;html=1;fontSize=14;fillColor=#d5e8d4;strokeColor=#82b366;" vertex="1" parent="1">
          <mxGeometry x="345" y="160" width="175" height="40" as="geometry" />
        </mxCell>
        <mxCell id="u2pC5DHE-9uG1haP-ySe-10" value="docId：2，词频：1，offset：0～4" style="rounded=0;whiteSpace=wrap;html=1;fontSize=14;fillColor=#fff2cc;strokeColor=#d6b656;" vertex="1" parent="1">
          <mxGeometry x="570" y="160" width="175" height="40" as="geometry" />
        </mxCell>
        <mxCell id="u2pC5DHE-9uG1haP-ySe-12" value="docId：1，词频：1，offset：6～11" style="rounded=0;whiteSpace=wrap;html=1;fontSize=14;fillColor=#f8cecc;strokeColor=#b85450;" vertex="1" parent="1">
          <mxGeometry x="345" y="220" width="175" height="40" as="geometry" />
        </mxCell>
        <mxCell id="u2pC5DHE-9uG1haP-ySe-13" value="docId：2，词频：1，offset：6～9" style="rounded=0;whiteSpace=wrap;html=1;fontSize=14;fillColor=#ffe6cc;strokeColor=#d79b00;" vertex="1" parent="1">
          <mxGeometry x="345" y="280" width="175" height="40" as="geometry" />
        </mxCell>
        <mxCell id="u2pC5DHE-9uG1haP-ySe-14" style="edgeStyle=orthogonalEdgeStyle;rounded=0;orthogonalLoop=1;jettySize=auto;html=1;entryX=0;entryY=0.5;entryDx=0;entryDy=0;strokeWidth=2;fontSize=14;" edge="1" parent="1" source="u2pC5DHE-9uG1haP-ySe-2" target="u2pC5DHE-9uG1haP-ySe-9">
          <mxGeometry relative="1" as="geometry" />
        </mxCell>
        <mxCell id="u2pC5DHE-9uG1haP-ySe-15" style="edgeStyle=orthogonalEdgeStyle;rounded=0;orthogonalLoop=1;jettySize=auto;html=1;exitX=1;exitY=0.5;exitDx=0;exitDy=0;entryX=0;entryY=0.5;entryDx=0;entryDy=0;strokeWidth=2;fontSize=14;" edge="1" parent="1" source="u2pC5DHE-9uG1haP-ySe-3" target="u2pC5DHE-9uG1haP-ySe-12">
          <mxGeometry relative="1" as="geometry" />
        </mxCell>
        <mxCell id="u2pC5DHE-9uG1haP-ySe-16" style="edgeStyle=orthogonalEdgeStyle;rounded=0;orthogonalLoop=1;jettySize=auto;html=1;exitX=1;exitY=0.5;exitDx=0;exitDy=0;entryX=0;entryY=0.5;entryDx=0;entryDy=0;strokeWidth=2;fontSize=14;" edge="1" parent="1" source="u2pC5DHE-9uG1haP-ySe-4" target="u2pC5DHE-9uG1haP-ySe-13">
          <mxGeometry relative="1" as="geometry" />
        </mxCell>
        <mxCell id="u2pC5DHE-9uG1haP-ySe-17" value="&lt;b&gt;倒排表（跳表），对应文件tim、doc、pos、pay&lt;/b&gt;" style="text;html=1;strokeColor=none;fillColor=none;align=center;verticalAlign=middle;whiteSpace=wrap;rounded=0;fontSize=14;" vertex="1" parent="1">
          <mxGeometry x="350" y="340" width="390" height="30" as="geometry" />
        </mxCell>
        <mxCell id="u2pC5DHE-9uG1haP-ySe-23" style="rounded=0;orthogonalLoop=1;jettySize=auto;html=1;exitX=0;exitY=1;exitDx=0;exitDy=0;entryX=1;entryY=0;entryDx=0;entryDy=0;strokeWidth=2;fontSize=14;" edge="1" parent="1" source="u2pC5DHE-9uG1haP-ySe-18" target="u2pC5DHE-9uG1haP-ySe-20">
          <mxGeometry relative="1" as="geometry" />
        </mxCell>
        <mxCell id="u2pC5DHE-9uG1haP-ySe-18" value="吃饭" style="ellipse;whiteSpace=wrap;html=1;aspect=fixed;fontSize=14;fillColor=#dae8fc;strokeColor=#6c8ebf;" vertex="1" parent="1">
          <mxGeometry x="449" y="410" width="60" height="60" as="geometry" />
        </mxCell>
        <mxCell id="u2pC5DHE-9uG1haP-ySe-24" style="edgeStyle=none;rounded=0;orthogonalLoop=1;jettySize=auto;html=1;entryX=0;entryY=0.5;entryDx=0;entryDy=0;strokeWidth=2;fontSize=14;" edge="1" parent="1" source="u2pC5DHE-9uG1haP-ySe-20" target="u2pC5DHE-9uG1haP-ySe-21">
          <mxGeometry relative="1" as="geometry" />
        </mxCell>
        <mxCell id="u2pC5DHE-9uG1haP-ySe-20" value="睡觉" style="ellipse;whiteSpace=wrap;html=1;aspect=fixed;fontSize=14;fillColor=#d5e8d4;strokeColor=#82b366;" vertex="1" parent="1">
          <mxGeometry x="378" y="525" width="60" height="60" as="geometry" />
        </mxCell>
        <mxCell id="u2pC5DHE-9uG1haP-ySe-27" style="edgeStyle=none;rounded=0;orthogonalLoop=1;jettySize=auto;html=1;exitX=0.5;exitY=0;exitDx=0;exitDy=0;entryX=1;entryY=1;entryDx=0;entryDy=0;strokeWidth=2;fontSize=14;" edge="1" parent="1" source="u2pC5DHE-9uG1haP-ySe-21" target="u2pC5DHE-9uG1haP-ySe-18">
          <mxGeometry relative="1" as="geometry" />
        </mxCell>
        <mxCell id="u2pC5DHE-9uG1haP-ySe-21" value="打豆豆" style="ellipse;whiteSpace=wrap;html=1;aspect=fixed;fontSize=14;fillColor=#fff2cc;strokeColor=#d6b656;" vertex="1" parent="1">
          <mxGeometry x="520" y="525" width="60" height="60" as="geometry" />
        </mxCell>
        <mxCell id="u2pC5DHE-9uG1haP-ySe-28" value="吃饱" style="text;html=1;strokeColor=none;fillColor=none;align=center;verticalAlign=middle;whiteSpace=wrap;rounded=0;fontSize=14;" vertex="1" parent="1">
          <mxGeometry x="378" y="470" width="60" height="30" as="geometry" />
        </mxCell>
        <mxCell id="u2pC5DHE-9uG1haP-ySe-29" value="睡醒" style="text;html=1;strokeColor=none;fillColor=none;align=center;verticalAlign=middle;whiteSpace=wrap;rounded=0;fontSize=14;" vertex="1" parent="1">
          <mxGeometry x="449" y="550" width="60" height="30" as="geometry" />
        </mxCell>
        <mxCell id="u2pC5DHE-9uG1haP-ySe-30" value="打累" style="text;html=1;strokeColor=none;fillColor=none;align=center;verticalAlign=middle;whiteSpace=wrap;rounded=0;fontSize=14;" vertex="1" parent="1">
          <mxGeometry x="528" y="470" width="60" height="30" as="geometry" />
        </mxCell>
        <mxCell id="u2pC5DHE-9uG1haP-ySe-32" value="&lt;b&gt;我的一天处于这三个状态中转换&lt;br&gt;&lt;/b&gt;" style="text;html=1;strokeColor=none;fillColor=none;align=left;verticalAlign=middle;whiteSpace=wrap;rounded=0;fontSize=14;" vertex="1" parent="1">
          <mxGeometry x="160" y="400" width="220" height="40" as="geometry" />
        </mxCell>
        <mxCell id="u2pC5DHE-9uG1haP-ySe-33" value="&lt;b style=&quot;&quot;&gt;eg：当处于吃饭状态下，接受的输入是吃饱，状态就转换到下一个状态睡觉&lt;/b&gt;" style="text;html=1;strokeColor=none;fillColor=none;align=left;verticalAlign=middle;whiteSpace=wrap;rounded=0;fontSize=14;" vertex="1" parent="1">
          <mxGeometry x="160" y="450" width="190" height="50" as="geometry" />
        </mxCell>
        <mxCell id="u2pC5DHE-9uG1haP-ySe-34" value="" style="rounded=0;whiteSpace=wrap;html=1;fontSize=14;fillColor=#f5f5f5;fontColor=#333333;strokeColor=#666666;" vertex="1" parent="1">
          <mxGeometry x="150" y="630" width="570" height="210" as="geometry" />
        </mxCell>
        <mxCell id="u2pC5DHE-9uG1haP-ySe-43" style="edgeStyle=none;rounded=0;orthogonalLoop=1;jettySize=auto;html=1;exitX=1;exitY=0.5;exitDx=0;exitDy=0;entryX=0;entryY=0.5;entryDx=0;entryDy=0;strokeWidth=2;fontSize=14;" edge="1" parent="1" source="u2pC5DHE-9uG1haP-ySe-35" target="u2pC5DHE-9uG1haP-ySe-37">
          <mxGeometry relative="1" as="geometry" />
        </mxCell>
        <mxCell id="u2pC5DHE-9uG1haP-ySe-50" value="a" style="edgeLabel;html=1;align=center;verticalAlign=middle;resizable=0;points=[];fontSize=14;" vertex="1" connectable="0" parent="u2pC5DHE-9uG1haP-ySe-43">
          <mxGeometry x="0.1231" relative="1" as="geometry">
            <mxPoint as="offset" />
          </mxGeometry>
        </mxCell>
        <mxCell id="u2pC5DHE-9uG1haP-ySe-44" style="edgeStyle=none;rounded=0;orthogonalLoop=1;jettySize=auto;html=1;exitX=1;exitY=0.5;exitDx=0;exitDy=0;entryX=0;entryY=0.5;entryDx=0;entryDy=0;strokeWidth=2;fontSize=14;" edge="1" parent="1" source="u2pC5DHE-9uG1haP-ySe-35" target="u2pC5DHE-9uG1haP-ySe-38">
          <mxGeometry relative="1" as="geometry" />
        </mxCell>
        <mxCell id="u2pC5DHE-9uG1haP-ySe-51" value="c" style="edgeLabel;html=1;align=center;verticalAlign=middle;resizable=0;points=[];fontSize=14;" vertex="1" connectable="0" parent="u2pC5DHE-9uG1haP-ySe-44">
          <mxGeometry x="0.0414" y="-2" relative="1" as="geometry">
            <mxPoint x="1" as="offset" />
          </mxGeometry>
        </mxCell>
        <mxCell id="u2pC5DHE-9uG1haP-ySe-35" value="node 0" style="ellipse;whiteSpace=wrap;html=1;aspect=fixed;fontSize=14;" vertex="1" parent="1">
          <mxGeometry x="170" y="700" width="55" height="55" as="geometry" />
        </mxCell>
        <mxCell id="u2pC5DHE-9uG1haP-ySe-36" value="初始状态" style="text;html=1;strokeColor=none;fillColor=none;align=center;verticalAlign=middle;whiteSpace=wrap;rounded=0;fontSize=14;" vertex="1" parent="1">
          <mxGeometry x="167.5" y="770" width="60" height="30" as="geometry" />
        </mxCell>
        <mxCell id="u2pC5DHE-9uG1haP-ySe-45" style="edgeStyle=none;rounded=0;orthogonalLoop=1;jettySize=auto;html=1;exitX=1;exitY=0.5;exitDx=0;exitDy=0;strokeWidth=2;fontSize=14;" edge="1" parent="1" source="u2pC5DHE-9uG1haP-ySe-37" target="u2pC5DHE-9uG1haP-ySe-39">
          <mxGeometry relative="1" as="geometry" />
        </mxCell>
        <mxCell id="u2pC5DHE-9uG1haP-ySe-52" value="b" style="edgeLabel;html=1;align=center;verticalAlign=middle;resizable=0;points=[];fontSize=14;" vertex="1" connectable="0" parent="u2pC5DHE-9uG1haP-ySe-45">
          <mxGeometry x="-0.04" y="2" relative="1" as="geometry">
            <mxPoint as="offset" />
          </mxGeometry>
        </mxCell>
        <mxCell id="u2pC5DHE-9uG1haP-ySe-37" value="node 1" style="ellipse;whiteSpace=wrap;html=1;aspect=fixed;fontSize=14;" vertex="1" parent="1">
          <mxGeometry x="330" y="650" width="55" height="55" as="geometry" />
        </mxCell>
        <mxCell id="u2pC5DHE-9uG1haP-ySe-47" style="edgeStyle=none;rounded=0;orthogonalLoop=1;jettySize=auto;html=1;exitX=1;exitY=0.5;exitDx=0;exitDy=0;entryX=0;entryY=0.5;entryDx=0;entryDy=0;strokeWidth=2;fontSize=14;" edge="1" parent="1" source="u2pC5DHE-9uG1haP-ySe-38" target="u2pC5DHE-9uG1haP-ySe-39">
          <mxGeometry relative="1" as="geometry" />
        </mxCell>
        <mxCell id="u2pC5DHE-9uG1haP-ySe-57" value="o" style="edgeLabel;html=1;align=center;verticalAlign=middle;resizable=0;points=[];fontSize=14;" vertex="1" connectable="0" parent="u2pC5DHE-9uG1haP-ySe-47">
          <mxGeometry x="-0.1304" relative="1" as="geometry">
            <mxPoint y="1" as="offset" />
          </mxGeometry>
        </mxCell>
        <mxCell id="u2pC5DHE-9uG1haP-ySe-48" style="edgeStyle=none;rounded=0;orthogonalLoop=1;jettySize=auto;html=1;exitX=1;exitY=0.5;exitDx=0;exitDy=0;strokeWidth=2;fontSize=14;" edge="1" parent="1" source="u2pC5DHE-9uG1haP-ySe-38" target="u2pC5DHE-9uG1haP-ySe-40">
          <mxGeometry relative="1" as="geometry" />
        </mxCell>
        <mxCell id="u2pC5DHE-9uG1haP-ySe-53" value="u" style="edgeLabel;html=1;align=center;verticalAlign=middle;resizable=0;points=[];fontSize=14;" vertex="1" connectable="0" parent="u2pC5DHE-9uG1haP-ySe-48">
          <mxGeometry x="0.0133" y="-1" relative="1" as="geometry">
            <mxPoint as="offset" />
          </mxGeometry>
        </mxCell>
        <mxCell id="u2pC5DHE-9uG1haP-ySe-38" value="node 3" style="ellipse;whiteSpace=wrap;html=1;aspect=fixed;fontSize=14;" vertex="1" parent="1">
          <mxGeometry x="330" y="745" width="55" height="55" as="geometry" />
        </mxCell>
        <mxCell id="u2pC5DHE-9uG1haP-ySe-46" style="edgeStyle=none;rounded=0;orthogonalLoop=1;jettySize=auto;html=1;exitX=1;exitY=0.5;exitDx=0;exitDy=0;entryX=0;entryY=0.5;entryDx=0;entryDy=0;strokeWidth=2;fontSize=14;" edge="1" parent="1" source="u2pC5DHE-9uG1haP-ySe-39" target="u2pC5DHE-9uG1haP-ySe-42">
          <mxGeometry relative="1" as="geometry" />
        </mxCell>
        <mxCell id="u2pC5DHE-9uG1haP-ySe-56" value="s" style="edgeLabel;html=1;align=center;verticalAlign=middle;resizable=0;points=[];fontSize=14;" vertex="1" connectable="0" parent="u2pC5DHE-9uG1haP-ySe-46">
          <mxGeometry x="-0.2547" y="3" relative="1" as="geometry">
            <mxPoint as="offset" />
          </mxGeometry>
        </mxCell>
        <mxCell id="u2pC5DHE-9uG1haP-ySe-39" value="node 2" style="ellipse;whiteSpace=wrap;html=1;aspect=fixed;fontSize=14;" vertex="1" parent="1">
          <mxGeometry x="460" y="650" width="55" height="55" as="geometry" />
        </mxCell>
        <mxCell id="u2pC5DHE-9uG1haP-ySe-49" style="edgeStyle=none;rounded=0;orthogonalLoop=1;jettySize=auto;html=1;exitX=1;exitY=0.5;exitDx=0;exitDy=0;entryX=0;entryY=0.5;entryDx=0;entryDy=0;strokeWidth=2;fontSize=14;" edge="1" parent="1" source="u2pC5DHE-9uG1haP-ySe-40" target="u2pC5DHE-9uG1haP-ySe-42">
          <mxGeometry relative="1" as="geometry" />
        </mxCell>
        <mxCell id="u2pC5DHE-9uG1haP-ySe-54" value="t" style="edgeLabel;html=1;align=center;verticalAlign=middle;resizable=0;points=[];fontSize=14;" vertex="1" connectable="0" parent="u2pC5DHE-9uG1haP-ySe-49">
          <mxGeometry x="0.0138" y="-2" relative="1" as="geometry">
            <mxPoint as="offset" />
          </mxGeometry>
        </mxCell>
        <mxCell id="u2pC5DHE-9uG1haP-ySe-40" value="node 4" style="ellipse;whiteSpace=wrap;html=1;aspect=fixed;fontSize=14;" vertex="1" parent="1">
          <mxGeometry x="460" y="745" width="55" height="55" as="geometry" />
        </mxCell>
        <mxCell id="u2pC5DHE-9uG1haP-ySe-42" value="node 5" style="ellipse;whiteSpace=wrap;html=1;aspect=fixed;fontSize=14;strokeWidth=4;" vertex="1" parent="1">
          <mxGeometry x="630" y="700" width="55" height="55" as="geometry" />
        </mxCell>
        <mxCell id="u2pC5DHE-9uG1haP-ySe-55" value="结束状态" style="text;html=1;strokeColor=none;fillColor=none;align=center;verticalAlign=middle;whiteSpace=wrap;rounded=0;fontSize=14;" vertex="1" parent="1">
          <mxGeometry x="625" y="770" width="60" height="30" as="geometry" />
        </mxCell>
        <mxCell id="u2pC5DHE-9uG1haP-ySe-59" value="" style="rounded=0;whiteSpace=wrap;html=1;fontSize=14;fillColor=#f5f5f5;fontColor=#333333;strokeColor=#666666;" vertex="1" parent="1">
          <mxGeometry x="147.5" y="850" width="570" height="210" as="geometry" />
        </mxCell>
        <mxCell id="u2pC5DHE-9uG1haP-ySe-60" style="edgeStyle=none;rounded=0;orthogonalLoop=1;jettySize=auto;html=1;exitX=1;exitY=0.5;exitDx=0;exitDy=0;entryX=0;entryY=0.5;entryDx=0;entryDy=0;strokeWidth=2;fontSize=14;" edge="1" source="u2pC5DHE-9uG1haP-ySe-64" target="u2pC5DHE-9uG1haP-ySe-68" parent="1">
          <mxGeometry relative="1" as="geometry" />
        </mxCell>
        <mxCell id="u2pC5DHE-9uG1haP-ySe-61" value="a/1" style="edgeLabel;html=1;align=center;verticalAlign=middle;resizable=0;points=[];fontSize=14;" vertex="1" connectable="0" parent="u2pC5DHE-9uG1haP-ySe-60">
          <mxGeometry x="0.1231" relative="1" as="geometry">
            <mxPoint as="offset" />
          </mxGeometry>
        </mxCell>
        <mxCell id="u2pC5DHE-9uG1haP-ySe-62" style="edgeStyle=none;rounded=0;orthogonalLoop=1;jettySize=auto;html=1;exitX=1;exitY=0.5;exitDx=0;exitDy=0;entryX=0;entryY=0.5;entryDx=0;entryDy=0;strokeWidth=2;fontSize=14;" edge="1" source="u2pC5DHE-9uG1haP-ySe-64" target="u2pC5DHE-9uG1haP-ySe-73" parent="1">
          <mxGeometry relative="1" as="geometry" />
        </mxCell>
        <mxCell id="u2pC5DHE-9uG1haP-ySe-63" value="c/8" style="edgeLabel;html=1;align=center;verticalAlign=middle;resizable=0;points=[];fontSize=14;" vertex="1" connectable="0" parent="u2pC5DHE-9uG1haP-ySe-62">
          <mxGeometry x="0.0414" y="-2" relative="1" as="geometry">
            <mxPoint x="1" as="offset" />
          </mxGeometry>
        </mxCell>
        <mxCell id="u2pC5DHE-9uG1haP-ySe-64" value="node 0" style="ellipse;whiteSpace=wrap;html=1;aspect=fixed;fontSize=14;" vertex="1" parent="1">
          <mxGeometry x="167.5" y="920" width="55" height="55" as="geometry" />
        </mxCell>
        <mxCell id="u2pC5DHE-9uG1haP-ySe-65" value="初始状态" style="text;html=1;strokeColor=none;fillColor=none;align=center;verticalAlign=middle;whiteSpace=wrap;rounded=0;fontSize=14;" vertex="1" parent="1">
          <mxGeometry x="165" y="990" width="60" height="30" as="geometry" />
        </mxCell>
        <mxCell id="u2pC5DHE-9uG1haP-ySe-66" style="edgeStyle=none;rounded=0;orthogonalLoop=1;jettySize=auto;html=1;exitX=1;exitY=0.5;exitDx=0;exitDy=0;strokeWidth=2;fontSize=14;" edge="1" source="u2pC5DHE-9uG1haP-ySe-68" target="u2pC5DHE-9uG1haP-ySe-76" parent="1">
          <mxGeometry relative="1" as="geometry" />
        </mxCell>
        <mxCell id="u2pC5DHE-9uG1haP-ySe-67" value="b" style="edgeLabel;html=1;align=center;verticalAlign=middle;resizable=0;points=[];fontSize=14;" vertex="1" connectable="0" parent="u2pC5DHE-9uG1haP-ySe-66">
          <mxGeometry x="-0.04" y="2" relative="1" as="geometry">
            <mxPoint as="offset" />
          </mxGeometry>
        </mxCell>
        <mxCell id="u2pC5DHE-9uG1haP-ySe-68" value="node 1" style="ellipse;whiteSpace=wrap;html=1;aspect=fixed;fontSize=14;" vertex="1" parent="1">
          <mxGeometry x="327.5" y="870" width="55" height="55" as="geometry" />
        </mxCell>
        <mxCell id="u2pC5DHE-9uG1haP-ySe-69" style="edgeStyle=none;rounded=0;orthogonalLoop=1;jettySize=auto;html=1;exitX=1;exitY=0.5;exitDx=0;exitDy=0;entryX=0;entryY=0.5;entryDx=0;entryDy=0;strokeWidth=2;fontSize=14;" edge="1" source="u2pC5DHE-9uG1haP-ySe-73" target="u2pC5DHE-9uG1haP-ySe-76" parent="1">
          <mxGeometry relative="1" as="geometry" />
        </mxCell>
        <mxCell id="u2pC5DHE-9uG1haP-ySe-70" value="o" style="edgeLabel;html=1;align=center;verticalAlign=middle;resizable=0;points=[];fontSize=14;" vertex="1" connectable="0" parent="u2pC5DHE-9uG1haP-ySe-69">
          <mxGeometry x="-0.1304" relative="1" as="geometry">
            <mxPoint y="1" as="offset" />
          </mxGeometry>
        </mxCell>
        <mxCell id="u2pC5DHE-9uG1haP-ySe-71" style="edgeStyle=none;rounded=0;orthogonalLoop=1;jettySize=auto;html=1;exitX=1;exitY=0.5;exitDx=0;exitDy=0;strokeWidth=2;fontSize=14;" edge="1" source="u2pC5DHE-9uG1haP-ySe-73" target="u2pC5DHE-9uG1haP-ySe-79" parent="1">
          <mxGeometry relative="1" as="geometry" />
        </mxCell>
        <mxCell id="u2pC5DHE-9uG1haP-ySe-72" value="u/7" style="edgeLabel;html=1;align=center;verticalAlign=middle;resizable=0;points=[];fontSize=14;" vertex="1" connectable="0" parent="u2pC5DHE-9uG1haP-ySe-71">
          <mxGeometry x="0.0133" y="-1" relative="1" as="geometry">
            <mxPoint as="offset" />
          </mxGeometry>
        </mxCell>
        <mxCell id="u2pC5DHE-9uG1haP-ySe-73" value="node 3" style="ellipse;whiteSpace=wrap;html=1;aspect=fixed;fontSize=14;" vertex="1" parent="1">
          <mxGeometry x="327.5" y="965" width="55" height="55" as="geometry" />
        </mxCell>
        <mxCell id="u2pC5DHE-9uG1haP-ySe-74" style="edgeStyle=none;rounded=0;orthogonalLoop=1;jettySize=auto;html=1;exitX=1;exitY=0.5;exitDx=0;exitDy=0;entryX=0;entryY=0.5;entryDx=0;entryDy=0;strokeWidth=2;fontSize=14;" edge="1" source="u2pC5DHE-9uG1haP-ySe-76" target="u2pC5DHE-9uG1haP-ySe-80" parent="1">
          <mxGeometry relative="1" as="geometry" />
        </mxCell>
        <mxCell id="u2pC5DHE-9uG1haP-ySe-75" value="s" style="edgeLabel;html=1;align=center;verticalAlign=middle;resizable=0;points=[];fontSize=14;" vertex="1" connectable="0" parent="u2pC5DHE-9uG1haP-ySe-74">
          <mxGeometry x="-0.2547" y="3" relative="1" as="geometry">
            <mxPoint as="offset" />
          </mxGeometry>
        </mxCell>
        <mxCell id="u2pC5DHE-9uG1haP-ySe-76" value="node 2" style="ellipse;whiteSpace=wrap;html=1;aspect=fixed;fontSize=14;" vertex="1" parent="1">
          <mxGeometry x="457.5" y="870" width="55" height="55" as="geometry" />
        </mxCell>
        <mxCell id="u2pC5DHE-9uG1haP-ySe-77" style="edgeStyle=none;rounded=0;orthogonalLoop=1;jettySize=auto;html=1;exitX=1;exitY=0.5;exitDx=0;exitDy=0;entryX=0;entryY=0.5;entryDx=0;entryDy=0;strokeWidth=2;fontSize=14;" edge="1" source="u2pC5DHE-9uG1haP-ySe-79" target="u2pC5DHE-9uG1haP-ySe-80" parent="1">
          <mxGeometry relative="1" as="geometry" />
        </mxCell>
        <mxCell id="u2pC5DHE-9uG1haP-ySe-78" value="t" style="edgeLabel;html=1;align=center;verticalAlign=middle;resizable=0;points=[];fontSize=14;" vertex="1" connectable="0" parent="u2pC5DHE-9uG1haP-ySe-77">
          <mxGeometry x="0.0138" y="-2" relative="1" as="geometry">
            <mxPoint as="offset" />
          </mxGeometry>
        </mxCell>
        <mxCell id="u2pC5DHE-9uG1haP-ySe-79" value="node 4" style="ellipse;whiteSpace=wrap;html=1;aspect=fixed;fontSize=14;" vertex="1" parent="1">
          <mxGeometry x="457.5" y="965" width="55" height="55" as="geometry" />
        </mxCell>
        <mxCell id="u2pC5DHE-9uG1haP-ySe-80" value="node 5" style="ellipse;whiteSpace=wrap;html=1;aspect=fixed;fontSize=14;strokeWidth=4;" vertex="1" parent="1">
          <mxGeometry x="627.5" y="920" width="55" height="55" as="geometry" />
        </mxCell>
        <mxCell id="u2pC5DHE-9uG1haP-ySe-81" value="结束状态" style="text;html=1;strokeColor=none;fillColor=none;align=center;verticalAlign=middle;whiteSpace=wrap;rounded=0;fontSize=14;" vertex="1" parent="1">
          <mxGeometry x="622.5" y="990" width="60" height="30" as="geometry" />
        </mxCell>
        <mxCell id="u2pC5DHE-9uG1haP-ySe-83" value="" style="rounded=0;whiteSpace=wrap;html=1;strokeWidth=1;fontSize=14;fillColor=#f5f5f5;fontColor=#333333;strokeColor=#666666;" vertex="1" parent="1">
          <mxGeometry x="40" y="1080" width="750" height="390" as="geometry" />
        </mxCell>
        <mxCell id="u2pC5DHE-9uG1haP-ySe-84" value="abc/4&lt;br&gt;abs/7&lt;br&gt;absef/15&lt;br&gt;solr/45&lt;br&gt;sonar/66" style="rounded=0;whiteSpace=wrap;html=1;strokeWidth=1;fontSize=14;align=left;fillColor=#dae8fc;strokeColor=#6c8ebf;" vertex="1" parent="1">
          <mxGeometry x="50" y="1090" width="80" height="100" as="geometry" />
        </mxCell>
        <mxCell id="u2pC5DHE-9uG1haP-ySe-92" style="edgeStyle=none;rounded=0;orthogonalLoop=1;jettySize=auto;html=1;exitX=1;exitY=0;exitDx=0;exitDy=0;entryX=0;entryY=0.5;entryDx=0;entryDy=0;strokeWidth=2;fontSize=14;" edge="1" parent="1" source="u2pC5DHE-9uG1haP-ySe-85" target="u2pC5DHE-9uG1haP-ySe-87">
          <mxGeometry relative="1" as="geometry" />
        </mxCell>
        <mxCell id="u2pC5DHE-9uG1haP-ySe-97" value="a/4" style="edgeLabel;html=1;align=center;verticalAlign=middle;resizable=0;points=[];fontSize=14;" vertex="1" connectable="0" parent="u2pC5DHE-9uG1haP-ySe-92">
          <mxGeometry x="-0.0394" y="-1" relative="1" as="geometry">
            <mxPoint as="offset" />
          </mxGeometry>
        </mxCell>
        <mxCell id="u2pC5DHE-9uG1haP-ySe-105" style="edgeStyle=none;rounded=0;orthogonalLoop=1;jettySize=auto;html=1;exitX=1;exitY=1;exitDx=0;exitDy=0;entryX=0;entryY=0.5;entryDx=0;entryDy=0;strokeWidth=2;fontSize=14;" edge="1" parent="1" source="u2pC5DHE-9uG1haP-ySe-85" target="u2pC5DHE-9uG1haP-ySe-104">
          <mxGeometry relative="1" as="geometry" />
        </mxCell>
        <mxCell id="u2pC5DHE-9uG1haP-ySe-108" value="s/45" style="edgeLabel;html=1;align=center;verticalAlign=middle;resizable=0;points=[];fontSize=14;" vertex="1" connectable="0" parent="u2pC5DHE-9uG1haP-ySe-105">
          <mxGeometry x="-0.1815" y="-2" relative="1" as="geometry">
            <mxPoint as="offset" />
          </mxGeometry>
        </mxCell>
        <mxCell id="u2pC5DHE-9uG1haP-ySe-85" value="node 0" style="ellipse;whiteSpace=wrap;html=1;aspect=fixed;fontSize=14;" vertex="1" parent="1">
          <mxGeometry x="90" y="1212.5" width="55" height="55" as="geometry" />
        </mxCell>
        <mxCell id="u2pC5DHE-9uG1haP-ySe-93" style="edgeStyle=none;rounded=0;orthogonalLoop=1;jettySize=auto;html=1;exitX=1;exitY=0.5;exitDx=0;exitDy=0;entryX=0;entryY=0.5;entryDx=0;entryDy=0;strokeWidth=2;fontSize=14;" edge="1" parent="1" source="u2pC5DHE-9uG1haP-ySe-87" target="u2pC5DHE-9uG1haP-ySe-88">
          <mxGeometry relative="1" as="geometry" />
        </mxCell>
        <mxCell id="u2pC5DHE-9uG1haP-ySe-98" value="b" style="edgeLabel;html=1;align=center;verticalAlign=middle;resizable=0;points=[];fontSize=14;" vertex="1" connectable="0" parent="u2pC5DHE-9uG1haP-ySe-93">
          <mxGeometry x="-0.0118" y="1" relative="1" as="geometry">
            <mxPoint y="1" as="offset" />
          </mxGeometry>
        </mxCell>
        <mxCell id="u2pC5DHE-9uG1haP-ySe-87" value="node 1" style="ellipse;whiteSpace=wrap;html=1;aspect=fixed;fontSize=14;" vertex="1" parent="1">
          <mxGeometry x="200" y="1150" width="55" height="55" as="geometry" />
        </mxCell>
        <mxCell id="u2pC5DHE-9uG1haP-ySe-94" value="s/3" style="edgeStyle=none;rounded=0;orthogonalLoop=1;jettySize=auto;html=1;exitX=1;exitY=0.5;exitDx=0;exitDy=0;entryX=0;entryY=0.5;entryDx=0;entryDy=0;strokeWidth=2;fontSize=14;" edge="1" parent="1" source="u2pC5DHE-9uG1haP-ySe-88" target="u2pC5DHE-9uG1haP-ySe-89">
          <mxGeometry relative="1" as="geometry" />
        </mxCell>
        <mxCell id="u2pC5DHE-9uG1haP-ySe-102" style="edgeStyle=none;rounded=0;orthogonalLoop=1;jettySize=auto;html=1;exitX=1;exitY=1;exitDx=0;exitDy=0;entryX=0;entryY=0.5;entryDx=0;entryDy=0;strokeWidth=2;fontSize=14;" edge="1" parent="1" source="u2pC5DHE-9uG1haP-ySe-88" target="u2pC5DHE-9uG1haP-ySe-91">
          <mxGeometry relative="1" as="geometry" />
        </mxCell>
        <mxCell id="u2pC5DHE-9uG1haP-ySe-103" value="c" style="edgeLabel;html=1;align=center;verticalAlign=middle;resizable=0;points=[];fontSize=14;" vertex="1" connectable="0" parent="u2pC5DHE-9uG1haP-ySe-102">
          <mxGeometry x="-0.1023" y="2" relative="1" as="geometry">
            <mxPoint as="offset" />
          </mxGeometry>
        </mxCell>
        <mxCell id="u2pC5DHE-9uG1haP-ySe-88" value="node 2" style="ellipse;whiteSpace=wrap;html=1;aspect=fixed;fontSize=14;" vertex="1" parent="1">
          <mxGeometry x="340" y="1150" width="55" height="55" as="geometry" />
        </mxCell>
        <mxCell id="u2pC5DHE-9uG1haP-ySe-95" style="edgeStyle=none;rounded=0;orthogonalLoop=1;jettySize=auto;html=1;exitX=1;exitY=0.5;exitDx=0;exitDy=0;strokeWidth=2;fontSize=14;" edge="1" parent="1" source="u2pC5DHE-9uG1haP-ySe-89" target="u2pC5DHE-9uG1haP-ySe-90">
          <mxGeometry relative="1" as="geometry" />
        </mxCell>
        <mxCell id="u2pC5DHE-9uG1haP-ySe-100" value="e/8" style="edgeLabel;html=1;align=center;verticalAlign=middle;resizable=0;points=[];fontSize=14;" vertex="1" connectable="0" parent="u2pC5DHE-9uG1haP-ySe-95">
          <mxGeometry x="-0.3143" y="3" relative="1" as="geometry">
            <mxPoint y="1" as="offset" />
          </mxGeometry>
        </mxCell>
        <mxCell id="u2pC5DHE-9uG1haP-ySe-89" value="node 4" style="ellipse;whiteSpace=wrap;html=1;aspect=fixed;fontSize=14;strokeWidth=4;" vertex="1" parent="1">
          <mxGeometry x="449" y="1112.5" width="55" height="55" as="geometry" />
        </mxCell>
        <mxCell id="u2pC5DHE-9uG1haP-ySe-96" style="edgeStyle=none;rounded=0;orthogonalLoop=1;jettySize=auto;html=1;exitX=1;exitY=0.5;exitDx=0;exitDy=0;entryX=0;entryY=0.5;entryDx=0;entryDy=0;strokeWidth=2;fontSize=14;" edge="1" parent="1" source="u2pC5DHE-9uG1haP-ySe-90" target="u2pC5DHE-9uG1haP-ySe-91">
          <mxGeometry relative="1" as="geometry" />
        </mxCell>
        <mxCell id="u2pC5DHE-9uG1haP-ySe-101" value="f" style="edgeLabel;html=1;align=center;verticalAlign=middle;resizable=0;points=[];fontSize=14;" vertex="1" connectable="0" parent="u2pC5DHE-9uG1haP-ySe-96">
          <mxGeometry x="-0.2662" relative="1" as="geometry">
            <mxPoint y="-1" as="offset" />
          </mxGeometry>
        </mxCell>
        <mxCell id="u2pC5DHE-9uG1haP-ySe-90" value="node 5" style="ellipse;whiteSpace=wrap;html=1;aspect=fixed;fontSize=14;" vertex="1" parent="1">
          <mxGeometry x="567.5" y="1120" width="55" height="55" as="geometry" />
        </mxCell>
        <mxCell id="u2pC5DHE-9uG1haP-ySe-91" value="node 6" style="ellipse;whiteSpace=wrap;html=1;aspect=fixed;fontSize=14;strokeWidth=3;" vertex="1" parent="1">
          <mxGeometry x="685" y="1220" width="55" height="55" as="geometry" />
        </mxCell>
        <mxCell id="u2pC5DHE-9uG1haP-ySe-107" style="edgeStyle=none;rounded=0;orthogonalLoop=1;jettySize=auto;html=1;exitX=1;exitY=0.5;exitDx=0;exitDy=0;entryX=0;entryY=0.5;entryDx=0;entryDy=0;strokeWidth=2;fontSize=14;" edge="1" parent="1" source="u2pC5DHE-9uG1haP-ySe-104" target="u2pC5DHE-9uG1haP-ySe-106">
          <mxGeometry relative="1" as="geometry" />
        </mxCell>
        <mxCell id="u2pC5DHE-9uG1haP-ySe-109" value="o" style="edgeLabel;html=1;align=center;verticalAlign=middle;resizable=0;points=[];fontSize=14;" vertex="1" connectable="0" parent="u2pC5DHE-9uG1haP-ySe-107">
          <mxGeometry x="-0.0435" y="2" relative="1" as="geometry">
            <mxPoint y="1" as="offset" />
          </mxGeometry>
        </mxCell>
        <mxCell id="u2pC5DHE-9uG1haP-ySe-104" value="node 7" style="ellipse;whiteSpace=wrap;html=1;aspect=fixed;fontSize=14;" vertex="1" parent="1">
          <mxGeometry x="206" y="1275" width="55" height="55" as="geometry" />
        </mxCell>
        <mxCell id="u2pC5DHE-9uG1haP-ySe-115" style="edgeStyle=none;rounded=0;orthogonalLoop=1;jettySize=auto;html=1;exitX=1;exitY=0.5;exitDx=0;exitDy=0;strokeWidth=2;fontSize=14;" edge="1" parent="1" source="u2pC5DHE-9uG1haP-ySe-106" target="u2pC5DHE-9uG1haP-ySe-111">
          <mxGeometry relative="1" as="geometry" />
        </mxCell>
        <mxCell id="u2pC5DHE-9uG1haP-ySe-116" value="l" style="edgeLabel;html=1;align=center;verticalAlign=middle;resizable=0;points=[];fontSize=14;" vertex="1" connectable="0" parent="u2pC5DHE-9uG1haP-ySe-115">
          <mxGeometry x="-0.1515" y="2" relative="1" as="geometry">
            <mxPoint y="1" as="offset" />
          </mxGeometry>
        </mxCell>
        <mxCell id="u2pC5DHE-9uG1haP-ySe-118" style="edgeStyle=none;rounded=0;orthogonalLoop=1;jettySize=auto;html=1;exitX=1;exitY=1;exitDx=0;exitDy=0;entryX=0;entryY=0.5;entryDx=0;entryDy=0;strokeWidth=2;fontSize=14;" edge="1" parent="1" source="u2pC5DHE-9uG1haP-ySe-106" target="u2pC5DHE-9uG1haP-ySe-110">
          <mxGeometry relative="1" as="geometry" />
        </mxCell>
        <mxCell id="u2pC5DHE-9uG1haP-ySe-120" value="n/21" style="edgeLabel;html=1;align=center;verticalAlign=middle;resizable=0;points=[];fontSize=14;" vertex="1" connectable="0" parent="u2pC5DHE-9uG1haP-ySe-118">
          <mxGeometry x="-0.2065" relative="1" as="geometry">
            <mxPoint as="offset" />
          </mxGeometry>
        </mxCell>
        <mxCell id="u2pC5DHE-9uG1haP-ySe-106" value="node 8" style="ellipse;whiteSpace=wrap;html=1;aspect=fixed;fontSize=14;" vertex="1" parent="1">
          <mxGeometry x="330" y="1275" width="55" height="55" as="geometry" />
        </mxCell>
        <mxCell id="u2pC5DHE-9uG1haP-ySe-119" style="edgeStyle=none;rounded=0;orthogonalLoop=1;jettySize=auto;html=1;exitX=1;exitY=0.5;exitDx=0;exitDy=0;entryX=0;entryY=0.5;entryDx=0;entryDy=0;strokeWidth=2;fontSize=14;" edge="1" parent="1" source="u2pC5DHE-9uG1haP-ySe-110" target="u2pC5DHE-9uG1haP-ySe-111">
          <mxGeometry relative="1" as="geometry" />
        </mxCell>
        <mxCell id="u2pC5DHE-9uG1haP-ySe-121" value="a" style="edgeLabel;html=1;align=center;verticalAlign=middle;resizable=0;points=[];fontSize=14;" vertex="1" connectable="0" parent="u2pC5DHE-9uG1haP-ySe-119">
          <mxGeometry x="-0.1104" y="-1" relative="1" as="geometry">
            <mxPoint x="1" as="offset" />
          </mxGeometry>
        </mxCell>
        <mxCell id="u2pC5DHE-9uG1haP-ySe-110" value="node 8" style="ellipse;whiteSpace=wrap;html=1;aspect=fixed;fontSize=14;" vertex="1" parent="1">
          <mxGeometry x="437.5" y="1330" width="55" height="55" as="geometry" />
        </mxCell>
        <mxCell id="u2pC5DHE-9uG1haP-ySe-114" style="edgeStyle=none;rounded=0;orthogonalLoop=1;jettySize=auto;html=1;entryX=0;entryY=0.5;entryDx=0;entryDy=0;strokeWidth=2;fontSize=14;" edge="1" parent="1" source="u2pC5DHE-9uG1haP-ySe-111" target="u2pC5DHE-9uG1haP-ySe-91">
          <mxGeometry relative="1" as="geometry" />
        </mxCell>
        <mxCell id="u2pC5DHE-9uG1haP-ySe-117" value="r" style="edgeLabel;html=1;align=center;verticalAlign=middle;resizable=0;points=[];fontSize=14;" vertex="1" connectable="0" parent="u2pC5DHE-9uG1haP-ySe-114">
          <mxGeometry x="-0.146" y="1" relative="1" as="geometry">
            <mxPoint as="offset" />
          </mxGeometry>
        </mxCell>
        <mxCell id="u2pC5DHE-9uG1haP-ySe-111" value="node 9" style="ellipse;whiteSpace=wrap;html=1;aspect=fixed;fontSize=14;" vertex="1" parent="1">
          <mxGeometry x="550" y="1275" width="55" height="55" as="geometry" />
        </mxCell>
        <mxCell id="u2pC5DHE-9uG1haP-ySe-122" value="起始状态" style="text;html=1;strokeColor=none;fillColor=none;align=center;verticalAlign=middle;whiteSpace=wrap;rounded=0;strokeWidth=3;fontSize=14;" vertex="1" parent="1">
          <mxGeometry x="85" y="1280" width="60" height="30" as="geometry" />
        </mxCell>
        <mxCell id="u2pC5DHE-9uG1haP-ySe-123" value="终止状态" style="text;html=1;strokeColor=none;fillColor=none;align=center;verticalAlign=middle;whiteSpace=wrap;rounded=0;strokeWidth=3;fontSize=14;" vertex="1" parent="1">
          <mxGeometry x="682.5" y="1287.5" width="60" height="30" as="geometry" />
        </mxCell>
        <mxCell id="u2pC5DHE-9uG1haP-ySe-124" value="终止状态" style="text;html=1;strokeColor=none;fillColor=none;align=center;verticalAlign=middle;whiteSpace=wrap;rounded=0;strokeWidth=3;fontSize=14;" vertex="1" parent="1">
          <mxGeometry x="444" y="1082.5" width="60" height="30" as="geometry" />
        </mxCell>
        <mxCell id="u2pC5DHE-9uG1haP-ySe-125" value="&lt;b&gt;冻结Arc的顺序为：f -&amp;gt; e/8 -&amp;gt; s/3 -&amp;gt; c -&amp;gt; b -&amp;gt; r -&amp;gt; a -&amp;gt; n/21 -&amp;gt; l -&amp;gt; 0 -&amp;gt; s/45 -&amp;gt; a&lt;/b&gt;" style="text;html=1;strokeColor=none;fillColor=none;align=center;verticalAlign=middle;whiteSpace=wrap;rounded=0;strokeWidth=3;fontSize=14;" vertex="1" parent="1">
          <mxGeometry x="40" y="1420" width="750" height="30" as="geometry" />
        </mxCell>
        <mxCell id="u2pC5DHE-9uG1haP-ySe-126" value="" style="rounded=0;whiteSpace=wrap;html=1;strokeWidth=1;fontSize=14;fillColor=#f5f5f5;fontColor=#333333;strokeColor=#666666;" vertex="1" parent="1">
          <mxGeometry x="40" y="1500" width="1120" height="390" as="geometry" />
        </mxCell>
        <mxCell id="u2pC5DHE-9uG1haP-ySe-131" value="index" style="rounded=0;whiteSpace=wrap;html=1;strokeWidth=1;fontSize=14;" vertex="1" parent="1">
          <mxGeometry x="60" y="1520" width="90" height="40" as="geometry" />
        </mxCell>
        <mxCell id="u2pC5DHE-9uG1haP-ySe-132" value="值" style="rounded=0;whiteSpace=wrap;html=1;strokeWidth=1;fontSize=14;" vertex="1" parent="1">
          <mxGeometry x="60" y="1560" width="90" height="40" as="geometry" />
        </mxCell>
        <mxCell id="u2pC5DHE-9uG1haP-ySe-133" value="解释" style="rounded=0;whiteSpace=wrap;html=1;strokeWidth=1;fontSize=14;" vertex="1" parent="1">
          <mxGeometry x="60" y="1600" width="90" height="40" as="geometry" />
        </mxCell>
        <mxCell id="u2pC5DHE-9uG1haP-ySe-134" value="0" style="rounded=0;whiteSpace=wrap;html=1;strokeWidth=1;fontSize=14;fillColor=#f8cecc;strokeColor=#b85450;" vertex="1" parent="1">
          <mxGeometry x="150" y="1520" width="90" height="40" as="geometry" />
        </mxCell>
        <mxCell id="u2pC5DHE-9uG1haP-ySe-135" value="0" style="rounded=0;whiteSpace=wrap;html=1;strokeWidth=1;fontSize=14;fillColor=#f8cecc;strokeColor=#b85450;" vertex="1" parent="1">
          <mxGeometry x="150" y="1560" width="90" height="40" as="geometry" />
        </mxCell>
        <mxCell id="u2pC5DHE-9uG1haP-ySe-136" value="结束标识位" style="rounded=0;whiteSpace=wrap;html=1;strokeWidth=1;fontSize=14;fillColor=#f8cecc;strokeColor=#b85450;" vertex="1" parent="1">
          <mxGeometry x="150" y="1600" width="90" height="40" as="geometry" />
        </mxCell>
        <mxCell id="u2pC5DHE-9uG1haP-ySe-137" value="1" style="rounded=0;whiteSpace=wrap;html=1;strokeWidth=1;fontSize=14;fillColor=#dae8fc;strokeColor=#6c8ebf;" vertex="1" parent="1">
          <mxGeometry x="240" y="1520" width="90" height="40" as="geometry" />
        </mxCell>
        <mxCell id="u2pC5DHE-9uG1haP-ySe-138" value="&lt;span style=&quot;font-family: Monaco; font-size: 12px; text-align: start;&quot;&gt;102&lt;/span&gt;" style="rounded=0;whiteSpace=wrap;html=1;strokeWidth=1;fontSize=14;fillColor=#dae8fc;strokeColor=#6c8ebf;" vertex="1" parent="1">
          <mxGeometry x="240" y="1560" width="90" height="40" as="geometry" />
        </mxCell>
        <mxCell id="u2pC5DHE-9uG1haP-ySe-139" value="f" style="rounded=0;whiteSpace=wrap;html=1;strokeWidth=1;fontSize=14;fillColor=#dae8fc;strokeColor=#6c8ebf;" vertex="1" parent="1">
          <mxGeometry x="240" y="1600" width="90" height="40" as="geometry" />
        </mxCell>
        <mxCell id="u2pC5DHE-9uG1haP-ySe-140" value="2" style="rounded=0;whiteSpace=wrap;html=1;strokeWidth=1;fontSize=14;fillColor=#dae8fc;strokeColor=#6c8ebf;" vertex="1" parent="1">
          <mxGeometry x="330" y="1520" width="90" height="40" as="geometry" />
        </mxCell>
        <mxCell id="u2pC5DHE-9uG1haP-ySe-141" value="15" style="rounded=0;whiteSpace=wrap;html=1;strokeWidth=1;fontSize=14;fillColor=#dae8fc;strokeColor=#6c8ebf;" vertex="1" parent="1">
          <mxGeometry x="330" y="1560" width="90" height="40" as="geometry" />
        </mxCell>
        <mxCell id="u2pC5DHE-9uG1haP-ySe-142" value="flags" style="rounded=0;whiteSpace=wrap;html=1;strokeWidth=1;fontSize=14;fillColor=#dae8fc;strokeColor=#6c8ebf;" vertex="1" parent="1">
          <mxGeometry x="330" y="1600" width="90" height="40" as="geometry" />
        </mxCell>
        <mxCell id="u2pC5DHE-9uG1haP-ySe-144" value="3" style="rounded=0;whiteSpace=wrap;html=1;strokeWidth=1;fontSize=14;fillColor=#d5e8d4;strokeColor=#82b366;" vertex="1" parent="1">
          <mxGeometry x="420" y="1520" width="90" height="40" as="geometry" />
        </mxCell>
        <mxCell id="u2pC5DHE-9uG1haP-ySe-145" value="&lt;span style=&quot;font-family: Monaco; font-size: 12px; text-align: start;&quot;&gt;8&lt;/span&gt;" style="rounded=0;whiteSpace=wrap;html=1;strokeWidth=1;fontSize=14;fillColor=#d5e8d4;strokeColor=#82b366;" vertex="1" parent="1">
          <mxGeometry x="420" y="1560" width="90" height="40" as="geometry" />
        </mxCell>
        <mxCell id="u2pC5DHE-9uG1haP-ySe-146" value="output" style="rounded=0;whiteSpace=wrap;html=1;strokeWidth=1;fontSize=14;fillColor=#d5e8d4;strokeColor=#82b366;" vertex="1" parent="1">
          <mxGeometry x="420" y="1600" width="90" height="40" as="geometry" />
        </mxCell>
        <mxCell id="u2pC5DHE-9uG1haP-ySe-147" value="4" style="rounded=0;whiteSpace=wrap;html=1;strokeWidth=1;fontSize=14;fillColor=#d5e8d4;strokeColor=#82b366;" vertex="1" parent="1">
          <mxGeometry x="510" y="1520" width="90" height="40" as="geometry" />
        </mxCell>
        <mxCell id="u2pC5DHE-9uG1haP-ySe-148" value="101" style="rounded=0;whiteSpace=wrap;html=1;strokeWidth=1;fontSize=14;fillColor=#d5e8d4;strokeColor=#82b366;" vertex="1" parent="1">
          <mxGeometry x="510" y="1560" width="90" height="40" as="geometry" />
        </mxCell>
        <mxCell id="u2pC5DHE-9uG1haP-ySe-149" value="e" style="rounded=0;whiteSpace=wrap;html=1;strokeWidth=1;fontSize=14;fillColor=#d5e8d4;strokeColor=#82b366;" vertex="1" parent="1">
          <mxGeometry x="510" y="1600" width="90" height="40" as="geometry" />
        </mxCell>
        <mxCell id="u2pC5DHE-9uG1haP-ySe-150" value="5" style="rounded=0;whiteSpace=wrap;html=1;strokeWidth=1;fontSize=14;fillColor=#d5e8d4;strokeColor=#82b366;" vertex="1" parent="1">
          <mxGeometry x="600" y="1520" width="90" height="40" as="geometry" />
        </mxCell>
        <mxCell id="u2pC5DHE-9uG1haP-ySe-151" value="&lt;span style=&quot;font-family: Monaco; font-size: 12px; text-align: start;&quot;&gt;22&lt;/span&gt;" style="rounded=0;whiteSpace=wrap;html=1;strokeWidth=1;fontSize=14;fillColor=#d5e8d4;strokeColor=#82b366;" vertex="1" parent="1">
          <mxGeometry x="600" y="1560" width="90" height="40" as="geometry" />
        </mxCell>
        <mxCell id="u2pC5DHE-9uG1haP-ySe-152" value="flags" style="rounded=0;whiteSpace=wrap;html=1;strokeWidth=1;fontSize=14;fillColor=#d5e8d4;strokeColor=#82b366;" vertex="1" parent="1">
          <mxGeometry x="600" y="1600" width="90" height="40" as="geometry" />
        </mxCell>
        <mxCell id="u2pC5DHE-9uG1haP-ySe-153" value="6" style="rounded=0;whiteSpace=wrap;html=1;strokeWidth=1;fontSize=14;fillColor=#ffe6cc;strokeColor=#d79b00;" vertex="1" parent="1">
          <mxGeometry x="690" y="1520" width="90" height="40" as="geometry" />
        </mxCell>
        <mxCell id="u2pC5DHE-9uG1haP-ySe-154" value="3" style="rounded=0;whiteSpace=wrap;html=1;strokeWidth=1;fontSize=14;fillColor=#ffe6cc;strokeColor=#d79b00;" vertex="1" parent="1">
          <mxGeometry x="690" y="1560" width="90" height="40" as="geometry" />
        </mxCell>
        <mxCell id="u2pC5DHE-9uG1haP-ySe-155" value="output" style="rounded=0;whiteSpace=wrap;html=1;strokeWidth=1;fontSize=14;fillColor=#ffe6cc;strokeColor=#d79b00;" vertex="1" parent="1">
          <mxGeometry x="690" y="1600" width="90" height="40" as="geometry" />
        </mxCell>
        <mxCell id="u2pC5DHE-9uG1haP-ySe-156" value="11" style="rounded=0;whiteSpace=wrap;html=1;strokeWidth=1;fontSize=14;fillColor=#fff2cc;strokeColor=#d6b656;" vertex="1" parent="1">
          <mxGeometry x="150" y="1640" width="90" height="40" as="geometry" />
        </mxCell>
        <mxCell id="u2pC5DHE-9uG1haP-ySe-157" value="&lt;div style=&quot;text-align: start;&quot;&gt;&lt;span style=&quot;background-color: initial; font-size: 12px;&quot;&gt;&lt;font face=&quot;Monaco&quot;&gt;98&lt;/font&gt;&lt;/span&gt;&lt;/div&gt;" style="rounded=0;whiteSpace=wrap;html=1;strokeWidth=1;fontSize=14;fillColor=#fff2cc;strokeColor=#d6b656;" vertex="1" parent="1">
          <mxGeometry x="150" y="1680" width="90" height="40" as="geometry" />
        </mxCell>
        <mxCell id="u2pC5DHE-9uG1haP-ySe-158" value="b" style="rounded=0;whiteSpace=wrap;html=1;strokeWidth=1;fontSize=14;fillColor=#fff2cc;strokeColor=#d6b656;" vertex="1" parent="1">
          <mxGeometry x="150" y="1720" width="90" height="40" as="geometry" />
        </mxCell>
        <mxCell id="u2pC5DHE-9uG1haP-ySe-159" value="&lt;b&gt;&lt;font style=&quot;font-size: 16px;&quot;&gt;12&lt;/font&gt;&lt;/b&gt;" style="rounded=0;whiteSpace=wrap;html=1;strokeWidth=1;fontSize=14;fillColor=#fff2cc;strokeColor=#d6b656;" vertex="1" parent="1">
          <mxGeometry x="240" y="1640" width="90" height="40" as="geometry" />
        </mxCell>
        <mxCell id="u2pC5DHE-9uG1haP-ySe-160" value="6" style="rounded=0;whiteSpace=wrap;html=1;strokeWidth=1;fontSize=14;fillColor=#fff2cc;strokeColor=#d6b656;" vertex="1" parent="1">
          <mxGeometry x="240" y="1680" width="90" height="40" as="geometry" />
        </mxCell>
        <mxCell id="u2pC5DHE-9uG1haP-ySe-161" value="flags" style="rounded=0;whiteSpace=wrap;html=1;strokeWidth=1;fontSize=14;fillColor=#fff2cc;strokeColor=#d6b656;" vertex="1" parent="1">
          <mxGeometry x="240" y="1720" width="90" height="40" as="geometry" />
        </mxCell>
        <mxCell id="u2pC5DHE-9uG1haP-ySe-162" value="13" style="rounded=0;whiteSpace=wrap;html=1;strokeWidth=1;fontSize=14;fillColor=#f8cecc;strokeColor=#b85450;" vertex="1" parent="1">
          <mxGeometry x="330" y="1640" width="90" height="40" as="geometry" />
        </mxCell>
        <mxCell id="u2pC5DHE-9uG1haP-ySe-163" value="&lt;span style=&quot;font-family: Monaco; font-size: 12px; text-align: start;&quot;&gt;114&lt;/span&gt;" style="rounded=0;whiteSpace=wrap;html=1;strokeWidth=1;fontSize=14;fillColor=#f8cecc;strokeColor=#b85450;" vertex="1" parent="1">
          <mxGeometry x="330" y="1680" width="90" height="40" as="geometry" />
        </mxCell>
        <mxCell id="u2pC5DHE-9uG1haP-ySe-164" value="r" style="rounded=0;whiteSpace=wrap;html=1;strokeWidth=1;fontSize=14;fillColor=#f8cecc;strokeColor=#b85450;" vertex="1" parent="1">
          <mxGeometry x="330" y="1720" width="90" height="40" as="geometry" />
        </mxCell>
        <mxCell id="u2pC5DHE-9uG1haP-ySe-165" value="&lt;b&gt;&lt;font style=&quot;font-size: 16px;&quot;&gt;14&lt;/font&gt;&lt;/b&gt;" style="rounded=0;whiteSpace=wrap;html=1;strokeWidth=1;fontSize=14;fillColor=#f8cecc;strokeColor=#b85450;" vertex="1" parent="1">
          <mxGeometry x="420" y="1640" width="90" height="40" as="geometry" />
        </mxCell>
        <mxCell id="u2pC5DHE-9uG1haP-ySe-166" value="15" style="rounded=0;whiteSpace=wrap;html=1;strokeWidth=1;fontSize=14;fillColor=#f8cecc;strokeColor=#b85450;" vertex="1" parent="1">
          <mxGeometry x="420" y="1680" width="90" height="40" as="geometry" />
        </mxCell>
        <mxCell id="u2pC5DHE-9uG1haP-ySe-167" value="flags" style="rounded=0;whiteSpace=wrap;html=1;strokeWidth=1;fontSize=14;fillColor=#f8cecc;strokeColor=#b85450;" vertex="1" parent="1">
          <mxGeometry x="420" y="1720" width="90" height="40" as="geometry" />
        </mxCell>
        <mxCell id="u2pC5DHE-9uG1haP-ySe-168" value="15" style="rounded=0;whiteSpace=wrap;html=1;strokeWidth=1;fontSize=14;fillColor=#dae8fc;strokeColor=#6c8ebf;" vertex="1" parent="1">
          <mxGeometry x="510" y="1640" width="90" height="40" as="geometry" />
        </mxCell>
        <mxCell id="u2pC5DHE-9uG1haP-ySe-169" value="&lt;span style=&quot;font-family: Monaco; text-align: start;&quot;&gt;&lt;font style=&quot;font-size: 16px;&quot;&gt;&lt;b&gt;14&lt;/b&gt;&lt;/font&gt;&lt;/span&gt;" style="rounded=0;whiteSpace=wrap;html=1;strokeWidth=1;fontSize=14;fillColor=#dae8fc;strokeColor=#6c8ebf;" vertex="1" parent="1">
          <mxGeometry x="510" y="1680" width="90" height="40" as="geometry" />
        </mxCell>
        <mxCell id="u2pC5DHE-9uG1haP-ySe-170" value="index" style="rounded=0;whiteSpace=wrap;html=1;strokeWidth=1;fontSize=14;fillColor=#dae8fc;strokeColor=#6c8ebf;" vertex="1" parent="1">
          <mxGeometry x="510" y="1720" width="90" height="40" as="geometry" />
        </mxCell>
        <mxCell id="u2pC5DHE-9uG1haP-ySe-171" value="16" style="rounded=0;whiteSpace=wrap;html=1;strokeWidth=1;fontSize=14;fillColor=#dae8fc;strokeColor=#6c8ebf;" vertex="1" parent="1">
          <mxGeometry x="600" y="1640" width="90" height="40" as="geometry" />
        </mxCell>
        <mxCell id="u2pC5DHE-9uG1haP-ySe-172" value="97" style="rounded=0;whiteSpace=wrap;html=1;strokeWidth=1;fontSize=14;fillColor=#dae8fc;strokeColor=#6c8ebf;" vertex="1" parent="1">
          <mxGeometry x="600" y="1680" width="90" height="40" as="geometry" />
        </mxCell>
        <mxCell id="u2pC5DHE-9uG1haP-ySe-173" value="a" style="rounded=0;whiteSpace=wrap;html=1;strokeWidth=1;fontSize=14;fillColor=#dae8fc;strokeColor=#6c8ebf;" vertex="1" parent="1">
          <mxGeometry x="600" y="1720" width="90" height="40" as="geometry" />
        </mxCell>
        <mxCell id="u2pC5DHE-9uG1haP-ySe-174" value="index" style="rounded=0;whiteSpace=wrap;html=1;strokeWidth=1;fontSize=14;" vertex="1" parent="1">
          <mxGeometry x="60" y="1640" width="90" height="40" as="geometry" />
        </mxCell>
        <mxCell id="u2pC5DHE-9uG1haP-ySe-175" value="值" style="rounded=0;whiteSpace=wrap;html=1;strokeWidth=1;fontSize=14;" vertex="1" parent="1">
          <mxGeometry x="60" y="1680" width="90" height="40" as="geometry" />
        </mxCell>
        <mxCell id="u2pC5DHE-9uG1haP-ySe-176" value="解释" style="rounded=0;whiteSpace=wrap;html=1;strokeWidth=1;fontSize=14;" vertex="1" parent="1">
          <mxGeometry x="60" y="1720" width="90" height="40" as="geometry" />
        </mxCell>
        <mxCell id="u2pC5DHE-9uG1haP-ySe-177" value="17" style="rounded=0;whiteSpace=wrap;html=1;strokeWidth=1;fontSize=14;fillColor=#dae8fc;strokeColor=#6c8ebf;" vertex="1" parent="1">
          <mxGeometry x="690" y="1640" width="90" height="40" as="geometry" />
        </mxCell>
        <mxCell id="u2pC5DHE-9uG1haP-ySe-178" value="2" style="rounded=0;whiteSpace=wrap;html=1;strokeWidth=1;fontSize=14;fillColor=#dae8fc;strokeColor=#6c8ebf;" vertex="1" parent="1">
          <mxGeometry x="690" y="1680" width="90" height="40" as="geometry" />
        </mxCell>
        <mxCell id="u2pC5DHE-9uG1haP-ySe-179" value="flags" style="rounded=0;whiteSpace=wrap;html=1;strokeWidth=1;fontSize=14;fillColor=#dae8fc;strokeColor=#6c8ebf;" vertex="1" parent="1">
          <mxGeometry x="690" y="1720" width="90" height="40" as="geometry" />
        </mxCell>
        <mxCell id="u2pC5DHE-9uG1haP-ySe-180" value="7" style="rounded=0;whiteSpace=wrap;html=1;strokeWidth=1;fontSize=14;fillColor=#ffe6cc;strokeColor=#d79b00;" vertex="1" parent="1">
          <mxGeometry x="780" y="1520" width="90" height="40" as="geometry" />
        </mxCell>
        <mxCell id="u2pC5DHE-9uG1haP-ySe-181" value="115" style="rounded=0;whiteSpace=wrap;html=1;strokeWidth=1;fontSize=14;fillColor=#ffe6cc;strokeColor=#d79b00;" vertex="1" parent="1">
          <mxGeometry x="780" y="1560" width="90" height="40" as="geometry" />
        </mxCell>
        <mxCell id="u2pC5DHE-9uG1haP-ySe-182" value="s" style="rounded=0;whiteSpace=wrap;html=1;strokeWidth=1;fontSize=14;fillColor=#ffe6cc;strokeColor=#d79b00;" vertex="1" parent="1">
          <mxGeometry x="780" y="1600" width="90" height="40" as="geometry" />
        </mxCell>
        <mxCell id="u2pC5DHE-9uG1haP-ySe-183" value="8" style="rounded=0;whiteSpace=wrap;html=1;strokeWidth=1;fontSize=14;fillColor=#ffe6cc;strokeColor=#d79b00;" vertex="1" parent="1">
          <mxGeometry x="870" y="1520" width="90" height="40" as="geometry" />
        </mxCell>
        <mxCell id="u2pC5DHE-9uG1haP-ySe-184" value="23" style="rounded=0;whiteSpace=wrap;html=1;strokeWidth=1;fontSize=14;fillColor=#ffe6cc;strokeColor=#d79b00;" vertex="1" parent="1">
          <mxGeometry x="870" y="1560" width="90" height="40" as="geometry" />
        </mxCell>
        <mxCell id="u2pC5DHE-9uG1haP-ySe-185" value="flags" style="rounded=0;whiteSpace=wrap;html=1;strokeWidth=1;fontSize=14;fillColor=#ffe6cc;strokeColor=#d79b00;" vertex="1" parent="1">
          <mxGeometry x="870" y="1600" width="90" height="40" as="geometry" />
        </mxCell>
        <mxCell id="u2pC5DHE-9uG1haP-ySe-186" value="9" style="rounded=0;whiteSpace=wrap;html=1;strokeWidth=1;fontSize=14;fillColor=#e1d5e7;strokeColor=#9673a6;" vertex="1" parent="1">
          <mxGeometry x="960" y="1520" width="90" height="40" as="geometry" />
        </mxCell>
        <mxCell id="u2pC5DHE-9uG1haP-ySe-187" value="99" style="rounded=0;whiteSpace=wrap;html=1;strokeWidth=1;fontSize=14;fillColor=#e1d5e7;strokeColor=#9673a6;" vertex="1" parent="1">
          <mxGeometry x="960" y="1560" width="90" height="40" as="geometry" />
        </mxCell>
        <mxCell id="u2pC5DHE-9uG1haP-ySe-188" value="c" style="rounded=0;whiteSpace=wrap;html=1;strokeWidth=1;fontSize=14;fillColor=#e1d5e7;strokeColor=#9673a6;" vertex="1" parent="1">
          <mxGeometry x="960" y="1600" width="90" height="40" as="geometry" />
        </mxCell>
        <mxCell id="u2pC5DHE-9uG1haP-ySe-189" value="10" style="rounded=0;whiteSpace=wrap;html=1;strokeWidth=1;fontSize=14;fillColor=#e1d5e7;strokeColor=#9673a6;" vertex="1" parent="1">
          <mxGeometry x="1050" y="1520" width="90" height="40" as="geometry" />
        </mxCell>
        <mxCell id="u2pC5DHE-9uG1haP-ySe-190" value="9" style="rounded=0;whiteSpace=wrap;html=1;strokeWidth=1;fontSize=14;fillColor=#e1d5e7;strokeColor=#9673a6;" vertex="1" parent="1">
          <mxGeometry x="1050" y="1560" width="90" height="40" as="geometry" />
        </mxCell>
        <mxCell id="u2pC5DHE-9uG1haP-ySe-191" value="flags" style="rounded=0;whiteSpace=wrap;html=1;strokeWidth=1;fontSize=14;fillColor=#e1d5e7;strokeColor=#9673a6;" vertex="1" parent="1">
          <mxGeometry x="1050" y="1600" width="90" height="40" as="geometry" />
        </mxCell>
        <mxCell id="u2pC5DHE-9uG1haP-ySe-192" value="18" style="rounded=0;whiteSpace=wrap;html=1;strokeWidth=1;fontSize=14;fillColor=#d5e8d4;strokeColor=#82b366;" vertex="1" parent="1">
          <mxGeometry x="780" y="1640" width="90" height="40" as="geometry" />
        </mxCell>
        <mxCell id="u2pC5DHE-9uG1haP-ySe-193" value="&lt;span style=&quot;font-family: Monaco; font-size: 12px; text-align: start;&quot;&gt;21&lt;/span&gt;" style="rounded=0;whiteSpace=wrap;html=1;strokeWidth=1;fontSize=14;fillColor=#d5e8d4;strokeColor=#82b366;" vertex="1" parent="1">
          <mxGeometry x="780" y="1680" width="90" height="40" as="geometry" />
        </mxCell>
        <mxCell id="u2pC5DHE-9uG1haP-ySe-194" value="output" style="rounded=0;whiteSpace=wrap;html=1;strokeWidth=1;fontSize=14;fillColor=#d5e8d4;strokeColor=#82b366;" vertex="1" parent="1">
          <mxGeometry x="780" y="1720" width="90" height="40" as="geometry" />
        </mxCell>
        <mxCell id="u2pC5DHE-9uG1haP-ySe-195" value="19" style="rounded=0;whiteSpace=wrap;html=1;strokeWidth=1;fontSize=14;fillColor=#d5e8d4;strokeColor=#82b366;" vertex="1" parent="1">
          <mxGeometry x="870" y="1640" width="90" height="40" as="geometry" />
        </mxCell>
        <mxCell id="u2pC5DHE-9uG1haP-ySe-196" value="110" style="rounded=0;whiteSpace=wrap;html=1;strokeWidth=1;fontSize=14;fillColor=#d5e8d4;strokeColor=#82b366;" vertex="1" parent="1">
          <mxGeometry x="870" y="1680" width="90" height="40" as="geometry" />
        </mxCell>
        <mxCell id="u2pC5DHE-9uG1haP-ySe-197" value="n" style="rounded=0;whiteSpace=wrap;html=1;strokeWidth=1;fontSize=14;fillColor=#d5e8d4;strokeColor=#82b366;" vertex="1" parent="1">
          <mxGeometry x="870" y="1720" width="90" height="40" as="geometry" />
        </mxCell>
        <mxCell id="u2pC5DHE-9uG1haP-ySe-198" value="20" style="rounded=0;whiteSpace=wrap;html=1;strokeWidth=1;fontSize=14;fillColor=#d5e8d4;strokeColor=#82b366;" vertex="1" parent="1">
          <mxGeometry x="960" y="1640" width="90" height="40" as="geometry" />
        </mxCell>
        <mxCell id="u2pC5DHE-9uG1haP-ySe-199" value="22" style="rounded=0;whiteSpace=wrap;html=1;strokeWidth=1;fontSize=14;fillColor=#d5e8d4;strokeColor=#82b366;" vertex="1" parent="1">
          <mxGeometry x="960" y="1680" width="90" height="40" as="geometry" />
        </mxCell>
        <mxCell id="u2pC5DHE-9uG1haP-ySe-200" value="flags" style="rounded=0;whiteSpace=wrap;html=1;strokeWidth=1;fontSize=14;fillColor=#d5e8d4;strokeColor=#82b366;" vertex="1" parent="1">
          <mxGeometry x="960" y="1720" width="90" height="40" as="geometry" />
        </mxCell>
        <mxCell id="u2pC5DHE-9uG1haP-ySe-201" value="21" style="rounded=0;whiteSpace=wrap;html=1;strokeWidth=1;fontSize=14;fillColor=#ffe6cc;strokeColor=#d79b00;" vertex="1" parent="1">
          <mxGeometry x="1050" y="1640" width="90" height="40" as="geometry" />
        </mxCell>
        <mxCell id="u2pC5DHE-9uG1haP-ySe-202" value="&lt;b&gt;&lt;font style=&quot;font-size: 16px;&quot;&gt;14&lt;/font&gt;&lt;/b&gt;" style="rounded=0;whiteSpace=wrap;html=1;strokeWidth=1;fontSize=14;fillColor=#ffe6cc;strokeColor=#d79b00;" vertex="1" parent="1">
          <mxGeometry x="1050" y="1680" width="90" height="40" as="geometry" />
        </mxCell>
        <mxCell id="u2pC5DHE-9uG1haP-ySe-203" value="index" style="rounded=0;whiteSpace=wrap;html=1;strokeWidth=1;fontSize=14;fillColor=#ffe6cc;strokeColor=#d79b00;" vertex="1" parent="1">
          <mxGeometry x="1050" y="1720" width="90" height="40" as="geometry" />
        </mxCell>
        <mxCell id="u2pC5DHE-9uG1haP-ySe-204" value="22" style="rounded=0;whiteSpace=wrap;html=1;strokeWidth=1;fontSize=14;fillColor=#ffe6cc;strokeColor=#d79b00;" vertex="1" parent="1">
          <mxGeometry x="150" y="1760" width="90" height="40" as="geometry" />
        </mxCell>
        <mxCell id="u2pC5DHE-9uG1haP-ySe-205" value="&lt;div style=&quot;text-align: start;&quot;&gt;&lt;span style=&quot;background-color: initial; font-size: 12px;&quot;&gt;&lt;font face=&quot;Monaco&quot;&gt;108&lt;/font&gt;&lt;/span&gt;&lt;/div&gt;" style="rounded=0;whiteSpace=wrap;html=1;strokeWidth=1;fontSize=14;fillColor=#ffe6cc;strokeColor=#d79b00;" vertex="1" parent="1">
          <mxGeometry x="150" y="1800" width="90" height="40" as="geometry" />
        </mxCell>
        <mxCell id="u2pC5DHE-9uG1haP-ySe-206" value="l" style="rounded=0;whiteSpace=wrap;html=1;strokeWidth=1;fontSize=14;fillColor=#ffe6cc;strokeColor=#d79b00;" vertex="1" parent="1">
          <mxGeometry x="150" y="1840" width="90" height="40" as="geometry" />
        </mxCell>
        <mxCell id="u2pC5DHE-9uG1haP-ySe-207" value="23" style="rounded=0;whiteSpace=wrap;html=1;strokeWidth=1;fontSize=14;fillColor=#ffe6cc;strokeColor=#d79b00;" vertex="1" parent="1">
          <mxGeometry x="240" y="1760" width="90" height="40" as="geometry" />
        </mxCell>
        <mxCell id="u2pC5DHE-9uG1haP-ySe-208" value="0" style="rounded=0;whiteSpace=wrap;html=1;strokeWidth=1;fontSize=14;fillColor=#ffe6cc;strokeColor=#d79b00;" vertex="1" parent="1">
          <mxGeometry x="240" y="1800" width="90" height="40" as="geometry" />
        </mxCell>
        <mxCell id="u2pC5DHE-9uG1haP-ySe-209" value="flags" style="rounded=0;whiteSpace=wrap;html=1;strokeWidth=1;fontSize=14;fillColor=#ffe6cc;strokeColor=#d79b00;" vertex="1" parent="1">
          <mxGeometry x="240" y="1840" width="90" height="40" as="geometry" />
        </mxCell>
        <mxCell id="u2pC5DHE-9uG1haP-ySe-210" value="24" style="rounded=0;whiteSpace=wrap;html=1;strokeWidth=1;fontSize=14;fillColor=#dae8fc;strokeColor=#6c8ebf;" vertex="1" parent="1">
          <mxGeometry x="330" y="1760" width="90" height="40" as="geometry" />
        </mxCell>
        <mxCell id="u2pC5DHE-9uG1haP-ySe-211" value="&lt;span style=&quot;font-family: Monaco; font-size: 12px; text-align: start;&quot;&gt;111&lt;/span&gt;" style="rounded=0;whiteSpace=wrap;html=1;strokeWidth=1;fontSize=14;fillColor=#dae8fc;strokeColor=#6c8ebf;" vertex="1" parent="1">
          <mxGeometry x="330" y="1800" width="90" height="40" as="geometry" />
        </mxCell>
        <mxCell id="u2pC5DHE-9uG1haP-ySe-212" value="o" style="rounded=0;whiteSpace=wrap;html=1;strokeWidth=1;fontSize=14;fillColor=#dae8fc;strokeColor=#6c8ebf;" vertex="1" parent="1">
          <mxGeometry x="330" y="1840" width="90" height="40" as="geometry" />
        </mxCell>
        <mxCell id="u2pC5DHE-9uG1haP-ySe-213" value="&lt;font style=&quot;font-size: 14px;&quot;&gt;25&lt;/font&gt;" style="rounded=0;whiteSpace=wrap;html=1;strokeWidth=1;fontSize=14;fillColor=#dae8fc;strokeColor=#6c8ebf;" vertex="1" parent="1">
          <mxGeometry x="420" y="1760" width="90" height="40" as="geometry" />
        </mxCell>
        <mxCell id="u2pC5DHE-9uG1haP-ySe-214" value="6" style="rounded=0;whiteSpace=wrap;html=1;strokeWidth=1;fontSize=14;fillColor=#dae8fc;strokeColor=#6c8ebf;" vertex="1" parent="1">
          <mxGeometry x="420" y="1800" width="90" height="40" as="geometry" />
        </mxCell>
        <mxCell id="u2pC5DHE-9uG1haP-ySe-215" value="flags" style="rounded=0;whiteSpace=wrap;html=1;strokeWidth=1;fontSize=14;fillColor=#dae8fc;strokeColor=#6c8ebf;" vertex="1" parent="1">
          <mxGeometry x="420" y="1840" width="90" height="40" as="geometry" />
        </mxCell>
        <mxCell id="u2pC5DHE-9uG1haP-ySe-216" value="26" style="rounded=0;whiteSpace=wrap;html=1;strokeWidth=1;fontSize=14;fillColor=#d5e8d4;strokeColor=#82b366;" vertex="1" parent="1">
          <mxGeometry x="510" y="1760" width="90" height="40" as="geometry" />
        </mxCell>
        <mxCell id="u2pC5DHE-9uG1haP-ySe-217" value="&lt;span style=&quot;font-family: Monaco; text-align: start;&quot;&gt;&lt;font size=&quot;1&quot; style=&quot;&quot;&gt;&lt;span style=&quot;font-size: 14px;&quot;&gt;45&lt;/span&gt;&lt;/font&gt;&lt;/span&gt;" style="rounded=0;whiteSpace=wrap;html=1;strokeWidth=1;fontSize=14;fillColor=#d5e8d4;strokeColor=#82b366;" vertex="1" parent="1">
          <mxGeometry x="510" y="1800" width="90" height="40" as="geometry" />
        </mxCell>
        <mxCell id="u2pC5DHE-9uG1haP-ySe-218" value="output" style="rounded=0;whiteSpace=wrap;html=1;strokeWidth=1;fontSize=14;fillColor=#d5e8d4;strokeColor=#82b366;" vertex="1" parent="1">
          <mxGeometry x="510" y="1840" width="90" height="40" as="geometry" />
        </mxCell>
        <mxCell id="u2pC5DHE-9uG1haP-ySe-219" value="27" style="rounded=0;whiteSpace=wrap;html=1;strokeWidth=1;fontSize=14;fillColor=#d5e8d4;strokeColor=#82b366;" vertex="1" parent="1">
          <mxGeometry x="600" y="1760" width="90" height="40" as="geometry" />
        </mxCell>
        <mxCell id="u2pC5DHE-9uG1haP-ySe-220" value="115" style="rounded=0;whiteSpace=wrap;html=1;strokeWidth=1;fontSize=14;fillColor=#d5e8d4;strokeColor=#82b366;" vertex="1" parent="1">
          <mxGeometry x="600" y="1800" width="90" height="40" as="geometry" />
        </mxCell>
        <mxCell id="u2pC5DHE-9uG1haP-ySe-221" value="s" style="rounded=0;whiteSpace=wrap;html=1;strokeWidth=1;fontSize=14;fillColor=#d5e8d4;strokeColor=#82b366;" vertex="1" parent="1">
          <mxGeometry x="600" y="1840" width="90" height="40" as="geometry" />
        </mxCell>
        <mxCell id="u2pC5DHE-9uG1haP-ySe-222" value="index" style="rounded=0;whiteSpace=wrap;html=1;strokeWidth=1;fontSize=14;" vertex="1" parent="1">
          <mxGeometry x="60" y="1760" width="90" height="40" as="geometry" />
        </mxCell>
        <mxCell id="u2pC5DHE-9uG1haP-ySe-223" value="值" style="rounded=0;whiteSpace=wrap;html=1;strokeWidth=1;fontSize=14;" vertex="1" parent="1">
          <mxGeometry x="60" y="1800" width="90" height="40" as="geometry" />
        </mxCell>
        <mxCell id="u2pC5DHE-9uG1haP-ySe-224" value="解释" style="rounded=0;whiteSpace=wrap;html=1;strokeWidth=1;fontSize=14;" vertex="1" parent="1">
          <mxGeometry x="60" y="1840" width="90" height="40" as="geometry" />
        </mxCell>
        <mxCell id="u2pC5DHE-9uG1haP-ySe-225" value="28" style="rounded=0;whiteSpace=wrap;html=1;strokeWidth=1;fontSize=14;fillColor=#d5e8d4;strokeColor=#82b366;" vertex="1" parent="1">
          <mxGeometry x="690" y="1760" width="90" height="40" as="geometry" />
        </mxCell>
        <mxCell id="u2pC5DHE-9uG1haP-ySe-226" value="22" style="rounded=0;whiteSpace=wrap;html=1;strokeWidth=1;fontSize=14;fillColor=#d5e8d4;strokeColor=#82b366;" vertex="1" parent="1">
          <mxGeometry x="690" y="1800" width="90" height="40" as="geometry" />
        </mxCell>
        <mxCell id="u2pC5DHE-9uG1haP-ySe-227" value="flags" style="rounded=0;whiteSpace=wrap;html=1;strokeWidth=1;fontSize=14;fillColor=#d5e8d4;strokeColor=#82b366;" vertex="1" parent="1">
          <mxGeometry x="690" y="1840" width="90" height="40" as="geometry" />
        </mxCell>
        <mxCell id="u2pC5DHE-9uG1haP-ySe-228" value="29" style="rounded=0;whiteSpace=wrap;html=1;strokeWidth=1;fontSize=14;fillColor=#e1d5e7;strokeColor=#9673a6;" vertex="1" parent="1">
          <mxGeometry x="780" y="1760" width="90" height="40" as="geometry" />
        </mxCell>
        <mxCell id="u2pC5DHE-9uG1haP-ySe-229" value="&lt;span style=&quot;font-family: Monaco; text-align: start;&quot;&gt;&lt;b style=&quot;&quot;&gt;&lt;font style=&quot;font-size: 16px;&quot;&gt;12&lt;/font&gt;&lt;/b&gt;&lt;/span&gt;" style="rounded=0;whiteSpace=wrap;html=1;strokeWidth=1;fontSize=14;fillColor=#e1d5e7;strokeColor=#9673a6;" vertex="1" parent="1">
          <mxGeometry x="780" y="1800" width="90" height="40" as="geometry" />
        </mxCell>
        <mxCell id="u2pC5DHE-9uG1haP-ySe-230" value="index" style="rounded=0;whiteSpace=wrap;html=1;strokeWidth=1;fontSize=14;fillColor=#e1d5e7;strokeColor=#9673a6;" vertex="1" parent="1">
          <mxGeometry x="780" y="1840" width="90" height="40" as="geometry" />
        </mxCell>
        <mxCell id="u2pC5DHE-9uG1haP-ySe-231" value="30" style="rounded=0;whiteSpace=wrap;html=1;strokeWidth=1;fontSize=14;fillColor=#e1d5e7;strokeColor=#9673a6;" vertex="1" parent="1">
          <mxGeometry x="870" y="1760" width="90" height="40" as="geometry" />
        </mxCell>
        <mxCell id="u2pC5DHE-9uG1haP-ySe-232" value="4" style="rounded=0;whiteSpace=wrap;html=1;strokeWidth=1;fontSize=14;fillColor=#e1d5e7;strokeColor=#9673a6;" vertex="1" parent="1">
          <mxGeometry x="870" y="1800" width="90" height="40" as="geometry" />
        </mxCell>
        <mxCell id="u2pC5DHE-9uG1haP-ySe-233" value="output" style="rounded=0;whiteSpace=wrap;html=1;strokeWidth=1;fontSize=14;fillColor=#e1d5e7;strokeColor=#9673a6;" vertex="1" parent="1">
          <mxGeometry x="870" y="1840" width="90" height="40" as="geometry" />
        </mxCell>
        <mxCell id="u2pC5DHE-9uG1haP-ySe-234" value="31" style="rounded=0;whiteSpace=wrap;html=1;strokeWidth=1;fontSize=14;fillColor=#e1d5e7;strokeColor=#9673a6;" vertex="1" parent="1">
          <mxGeometry x="960" y="1760" width="90" height="40" as="geometry" />
        </mxCell>
        <mxCell id="u2pC5DHE-9uG1haP-ySe-235" value="97" style="rounded=0;whiteSpace=wrap;html=1;strokeWidth=1;fontSize=14;fillColor=#e1d5e7;strokeColor=#9673a6;" vertex="1" parent="1">
          <mxGeometry x="960" y="1800" width="90" height="40" as="geometry" />
        </mxCell>
        <mxCell id="u2pC5DHE-9uG1haP-ySe-236" value="a" style="rounded=0;whiteSpace=wrap;html=1;strokeWidth=1;fontSize=14;fillColor=#e1d5e7;strokeColor=#9673a6;" vertex="1" parent="1">
          <mxGeometry x="960" y="1840" width="90" height="40" as="geometry" />
        </mxCell>
        <mxCell id="u2pC5DHE-9uG1haP-ySe-237" value="32" style="rounded=0;whiteSpace=wrap;html=1;strokeWidth=1;fontSize=14;fillColor=#e1d5e7;strokeColor=#9673a6;" vertex="1" parent="1">
          <mxGeometry x="1050" y="1760" width="90" height="40" as="geometry" />
        </mxCell>
        <mxCell id="u2pC5DHE-9uG1haP-ySe-238" value="&lt;font style=&quot;font-size: 14px;&quot;&gt;16&lt;/font&gt;" style="rounded=0;whiteSpace=wrap;html=1;strokeWidth=1;fontSize=14;fillColor=#e1d5e7;strokeColor=#9673a6;" vertex="1" parent="1">
          <mxGeometry x="1050" y="1800" width="90" height="40" as="geometry" />
        </mxCell>
        <mxCell id="u2pC5DHE-9uG1haP-ySe-239" value="flags" style="rounded=0;whiteSpace=wrap;html=1;strokeWidth=1;fontSize=14;fillColor=#e1d5e7;strokeColor=#9673a6;" vertex="1" parent="1">
          <mxGeometry x="1050" y="1840" width="90" height="40" as="geometry" />
        </mxCell>
      </root>
    </mxGraphModel>
  </diagram>
</mxfile>
